<svg xmlns="http://www.w3.org/2000/svg" viewBox="0 0 1280 1280"><path d="M423 127a889 889 0 0 0-44 4 239 239 0 0 0-164 104 749 749 0 0 0-86 177l-2 6c-3 12-2 29 2 37s17 10 38 7c11-1 20-4 27-9a73 73 0 0 0 21-23l4-5 3-5 7-9c10-15 23-30 33-40 29-28 52-40 88-45a312 312 0 0 1 58-2c11 3 12 9 10 41l-1 14-5 67-4 40a1803 1803 0 0 1-6 51l-2 19a927 927 0 0 1-13 78l-5 26-2 14-13 53a495 495 0 0 1-87 173l-25 38a156 156 0 0 0-27 119c6 30 25 55 53 68 25 11 55 10 86-1 8-3 24-11 27-14a162 162 0 0 0 40-41c18-26 38-73 49-115 9-34 19-88 25-135a3377 3377 0 0 0 27-248l8-95 1-14 2-29 1-16 1-22c4-58 4-60 8-66l6-4c5-3 5-3 96-3 86 0 92 0 97 2l7 5c2 3 2 4 2 14l-1 14-2 14a1099 1099 0 0 1-7 76l-1 10-5 46a4227 4227 0 0 0-6 73l-1 13-1 12-1 12-4 51-1 23a833 833 0 0 0-3 54c-2 39 1 113 5 153l2 12a218 218 0 0 0 3 20l4 25a265 265 0 0 0 58 125 170 170 0 0 0 146 57 212 212 0 0 0 105-42 260 260 0 0 0 82-111c16-40 31-102 34-141 2-27-12-44-36-45-17 0-30 6-38 19l-7 17c-11 29-20 44-31 56l-16 14a87 87 0 0 1-99-7l-18-18-4-5c-4-4-13-24-16-34-6-20-9-43-11-67a2197 2197 0 0 1 8-242l1-12c3-46 8-92 13-127 7-58 7-59 18-64l91-2a720 720 0 0 0 110-5l15-4c10-5 17-14 21-26l2-59-1-63c-2-16-10-27-22-33-13-6 9-6-374-6l-353 1z"/></svg>